<?xml version="1.0" standalone="no"?>
<!DOCTYPE svg PUBLIC "-//W3C//DTD SVG 20010904//EN"
 "http://www.w3.org/TR/2001/REC-SVG-20010904/DTD/svg10.dtd">
<svg version="1.0" xmlns="http://www.w3.org/2000/svg"
 width="433.000000pt" height="433.000000pt" viewBox="0 0 433.000000 433.000000"
 preserveAspectRatio="xMidYMid meet">
<metadata>
Created by potrace 1.14, written by Peter Selinger 2001-2017
</metadata>
<g transform="translate(0.000000,433.000000) scale(0.100000,-0.100000)"
fill="#000000" stroke="none">
<path d="M3972 4059 c-12 -11 -19 -25 -16 -31 4 -7 2 -8 -4 -4 -7 4 -12 0 -13
-11 0 -10 -3 -13 -6 -5 -2 6 -9 12 -14 12 -6 0 -8 -4 -5 -9 3 -5 -5 -12 -19
-15 -14 -4 -24 -12 -22 -19 1 -7 -7 -11 -22 -9 -17 3 -21 0 -15 -10 6 -10 4
-10 -9 1 -11 9 -17 10 -17 2 0 -6 -7 -11 -15 -11 -8 0 -15 -5 -15 -11 0 -8 -6
-7 -17 2 -11 10 -14 10 -9 2 4 -8 1 -13 -8 -13 -9 0 -16 -4 -16 -10 0 -5 -5
-10 -11 -10 -5 0 -7 6 -3 13 6 10 4 10 -7 0 -7 -7 -22 -13 -34 -13 -12 0 -27
-6 -34 -12 -11 -10 -13 -10 -7 0 4 6 2 12 -4 12 -6 0 -13 -7 -16 -15 -4 -8
-11 -12 -16 -9 -6 4 -14 0 -19 -7 -7 -12 -9 -12 -9 0 0 10 -3 11 -14 2 -9 -8
-16 -8 -20 -2 -4 6 -13 8 -21 5 -8 -4 -12 -11 -8 -18 4 -6 -1 -5 -10 3 -9 7
-17 10 -17 5 0 -5 -5 -2 -11 6 -8 11 -9 9 -3 -10 6 -22 5 -23 -10 -11 -9 7
-16 9 -16 3 0 -5 -9 -8 -20 -5 -13 3 -20 0 -20 -8 0 -11 -2 -11 -10 1 -9 13
-10 13 -10 0 0 -13 -2 -13 -9 -1 -7 11 -13 12 -23 4 -19 -16 -30 -17 -39 -1
-7 10 -9 10 -9 -3 0 -12 -8 -14 -31 -11 -19 3 -29 1 -26 -5 7 -12 -43 -11 -62
1 -10 6 -12 6 -6 -3 9 -15 -36 -11 -47 4 -5 6 -8 6 -8 -1 0 -7 -19 -12 -47
-12 -72 -1 -75 -1 -68 -12 3 -5 2 -10 -4 -10 -5 0 -12 6 -14 13 -4 10 -6 10
-6 0 -1 -7 -9 -13 -19 -13 -10 0 -24 6 -31 13 -9 8 -12 8 -7 0 4 -8 -16 -12
-71 -15 -109 -4 -133 -1 -127 20 5 15 4 15 -6 0 -6 -10 -16 -18 -23 -18 -7 0
-6 4 3 10 11 7 7 10 -17 10 -20 0 -33 5 -33 13 0 9 -2 9 -9 -1 -7 -11 -9 -10
-15 3 -4 12 -10 14 -22 7 -20 -11 -54 -4 -54 12 0 6 -5 4 -10 -4 -6 -10 -10
-11 -10 -2 0 6 -5 12 -11 12 -5 0 -7 -6 -3 -12 5 -8 1 -7 -10 2 -25 20 -46 21
-47 2 0 -11 -2 -12 -6 -4 -2 6 -9 10 -13 7 -5 -3 -19 5 -31 17 -12 13 -19 17
-15 11 4 -7 4 -13 -1 -14 -4 0 -18 -2 -30 -3 -13 -2 -23 2 -23 8 0 6 -5 5 -12
-2 -9 -9 -16 -8 -32 6 -11 9 -17 12 -13 6 4 -7 -4 -11 -23 -10 -17 1 -30 6
-31 11 0 6 -4 1 -9 -10 -6 -13 -9 -15 -9 -5 -1 16 -61 24 -61 9 0 -5 -7 -5
-17 -2 -11 4 -14 3 -9 -5 5 -8 2 -10 -8 -6 -9 3 -14 9 -12 13 6 9 -53 6 -62
-4 -4 -5 0 -5 8 0 9 5 12 4 7 -1 -11 -11 -87 -14 -87 -3 0 10 -29 7 -48 -5 -7
-4 -25 -6 -41 -4 -16 1 -37 -4 -47 -12 -10 -9 -15 -10 -10 -2 4 6 2 12 -3 12
-6 0 -11 -5 -11 -11 0 -8 -5 -7 -15 1 -13 11 -14 10 -10 -2 4 -10 0 -14 -14
-13 -11 1 -24 5 -28 10 -5 4 -3 5 4 1 6 -3 14 -2 17 3 4 5 -2 8 -11 6 -10 -1
-17 -10 -17 -19 2 -13 -1 -14 -12 -5 -11 9 -14 9 -14 0 0 -7 -10 -12 -22 -11
-45 4 -59 0 -52 -12 5 -8 0 -7 -11 2 -11 9 -16 10 -11 3 5 -10 -4 -13 -36 -14
-24 -1 -47 0 -53 1 -5 1 -41 2 -78 1 -53 -1 -67 2 -61 11 4 7 4 10 -1 6 -4 -4
-14 -3 -21 3 -10 9 -15 7 -20 -5 -3 -9 -10 -13 -15 -10 -5 3 -7 8 -5 12 2 4
-29 6 -70 4 -43 -2 -80 1 -88 7 -9 7 -16 7 -24 -1 -9 -9 -12 -9 -12 0 0 16
-42 15 -59 0 -8 -8 -11 -8 -8 -2 6 10 -9 19 -51 29 -6 2 -10 0 -7 -4 2 -4 -2
-8 -10 -8 -8 0 -12 4 -9 9 7 11 -3 10 -28 -3 -15 -8 -19 -8 -14 0 5 7 -3 11
-19 11 -17 0 -24 -4 -19 -12 4 -7 3 -8 -5 -4 -6 4 -9 11 -6 16 2 4 -10 7 -28
5 -35 -3 -59 3 -53 14 2 3 -7 6 -20 6 -13 0 -24 -4 -24 -9 0 -5 -6 -3 -13 3
-8 6 -17 8 -20 4 -4 -3 -7 -1 -7 5 0 7 5 12 12 12 6 0 8 3 5 6 -4 4 -13 1 -22
-6 -8 -7 -15 -8 -15 -3 0 5 -17 10 -37 11 -22 2 -48 12 -62 25 -13 12 -21 16
-17 10 11 -19 -22 -16 -41 3 -10 10 -26 13 -42 10 -14 -3 -20 -3 -13 0 18 8
14 24 -5 17 -11 -4 -14 -3 -9 5 5 8 2 10 -8 6 -9 -4 -16 -1 -16 6 0 7 -7 10
-15 6 -9 -3 -15 0 -15 9 0 8 -5 15 -11 15 -5 0 -7 -6 -3 -12 4 -7 -2 -4 -14 6
-12 11 -22 25 -22 33 0 22 -36 15 -37 -7 -1 -11 2 -18 6 -16 4 3 7 -6 7 -19 0
-13 -4 -21 -8 -19 -4 3 -8 -2 -8 -11 0 -9 4 -13 10 -10 6 4 8 -7 6 -27 -3 -28
-2 -30 9 -15 12 16 13 16 11 -7 0 -13 -5 -22 -11 -19 -5 3 -4 0 3 -8 14 -15
16 -33 3 -25 -5 4 -4 -5 2 -19 7 -14 17 -25 22 -25 6 0 3 -5 -5 -10 -13 -8
-13 -10 2 -10 11 0 15 -7 14 -25 -2 -13 2 -23 7 -22 6 1 11 -9 11 -23 1 -16 6
-24 15 -22 8 2 11 -3 8 -13 -4 -9 4 -25 21 -40 15 -14 21 -25 14 -25 -6 0 -12
-5 -12 -12 0 -6 3 -9 6 -5 10 10 34 -20 34 -42 0 -14 5 -19 14 -15 11 4 13 0
9 -18 -4 -18 -3 -20 6 -8 9 13 11 11 11 -7 0 -12 11 -31 26 -42 14 -11 26 -23
27 -28 1 -4 5 -7 9 -6 5 2 7 -1 5 -6 -1 -5 11 -20 26 -35 15 -14 26 -30 23
-35 -4 -5 5 -8 19 -6 20 2 23 0 14 -11 -9 -11 -7 -14 12 -14 19 0 21 -2 9 -10
-12 -8 -10 -10 8 -10 13 0 20 -4 17 -10 -3 -5 4 -10 15 -10 17 0 21 -4 16 -17
-4 -10 -4 -14 0 -10 4 3 18 -6 31 -21 18 -20 22 -22 16 -7 -5 15 -1 14 19 -8
18 -19 28 -24 31 -15 4 9 6 7 6 -4 1 -9 6 -20 13 -24 7 -5 8 -3 3 6 -5 9 -4
11 3 6 7 -4 12 -15 12 -24 0 -13 2 -14 9 -4 7 11 9 10 15 -3 3 -9 10 -14 15
-10 5 3 13 0 17 -6 4 -8 3 -9 -4 -5 -7 4 -12 1 -12 -8 0 -8 3 -16 8 -19 4 -2
1 -2 -7 0 -8 2 -18 -2 -22 -8 -9 -15 -39 -21 -39 -8 0 6 -6 4 -14 -3 -8 -7
-12 -15 -10 -17 5 -6 -46 -31 -63 -31 -8 0 -12 -4 -9 -9 3 -5 -4 -11 -15 -14
-13 -4 -18 -10 -13 -18 4 -8 3 -10 -4 -5 -7 4 -12 3 -12 -3 0 -6 -6 -8 -14 -5
-8 3 -19 -3 -26 -15 -6 -12 -18 -21 -28 -21 -15 0 -15 -2 -2 -10 13 -8 12 -10
-5 -11 -11 -1 -24 -1 -29 0 -5 1 -3 -6 5 -15 8 -10 9 -15 3 -11 -7 4 -23 -2
-35 -14 -13 -11 -18 -17 -10 -13 10 5 12 3 7 -5 -5 -7 -15 -10 -23 -6 -13 5
-14 3 -3 -10 7 -9 9 -15 4 -14 -21 4 -35 -2 -29 -11 6 -9 -1 -12 -22 -9 -10 1
-25 -30 -18 -41 3 -6 -1 -7 -9 -4 -9 4 -18 -1 -22 -10 -3 -9 -10 -13 -15 -10
-5 3 -9 -2 -9 -10 0 -9 -6 -16 -12 -16 -9 0 -8 -4 2 -10 11 -7 11 -10 2 -10
-8 0 -10 -5 -6 -12 5 -8 0 -7 -11 2 -11 9 -16 10 -11 3 4 -8 2 -13 -5 -13 -7
0 -9 -3 -6 -6 4 -4 -3 -15 -14 -25 -12 -10 -18 -23 -14 -28 4 -7 0 -8 -11 -4
-14 5 -16 3 -11 -11 4 -10 3 -15 -3 -11 -6 3 -10 -2 -10 -12 0 -15 -2 -16 -10
-3 -9 13 -10 13 -11 0 -1 -8 -2 -22 -3 -30 0 -8 -9 -14 -19 -14 -10 1 -16 0
-13 -3 3 -3 -3 -18 -13 -32 -10 -14 -21 -34 -24 -43 -4 -10 -14 -18 -24 -18
-15 0 -16 -2 -3 -10 13 -8 13 -10 -2 -10 -12 0 -15 -5 -11 -17 4 -11 3 -14 -5
-9 -7 4 -12 1 -12 -8 0 -9 -7 -16 -15 -16 -8 0 -15 -8 -15 -17 -1 -10 -8 -29
-16 -43 -8 -14 -13 -17 -10 -7 9 27 -2 20 -20 -14 -8 -17 -11 -28 -6 -25 6 3
5 -5 -1 -19 -7 -14 -17 -25 -24 -25 -7 0 -10 -9 -8 -21 3 -17 2 -19 -10 -9
-12 10 -13 8 -10 -9 2 -14 -1 -21 -11 -21 -8 0 -12 -5 -9 -10 4 -6 11 -7 17
-4 7 4 8 2 4 -5 -4 -6 -12 -9 -17 -6 -5 4 -9 -1 -9 -9 0 -9 -4 -16 -10 -16 -5
0 -10 -9 -10 -20 0 -18 10 -25 33 -21 4 0 7 -6 7 -14 0 -8 6 -12 14 -9 8 3 17
0 22 -7 5 -8 3 -10 -7 -4 -8 5 -10 4 -6 0 7 -8 35 -14 89 -18 9 -1 16 -6 15
-11 -1 -5 17 -10 40 -11 26 0 51 -9 65 -20 23 -20 23 -20 8 0 -15 19 -15 19
13 2 15 -10 27 -14 27 -9 0 5 7 9 15 9 8 0 12 -4 9 -9 -8 -12 10 -10 23 3 8 8
13 8 17 0 4 -6 17 -11 28 -11 11 0 27 -8 34 -18 12 -15 13 -15 8 0 -5 15 9 18
36 8 3 -1 8 -2 12 -1 5 0 8 -4 8 -9 0 -12 22 -9 32 5 5 7 8 6 8 0 0 -12 79
-13 98 -2 8 6 12 2 12 -12 0 -16 6 -19 28 -16 19 2 27 8 25 21 -1 15 2 14 18
-6 16 -21 18 -22 13 -5 -5 19 -5 19 9 3 8 -10 19 -18 26 -18 6 0 11 -4 11 -10
0 -5 -8 -10 -17 -10 -15 0 -16 -2 -3 -10 12 -7 12 -10 1 -10 -7 0 -11 -6 -8
-14 4 -10 1 -13 -8 -9 -8 3 -12 10 -8 16 4 6 1 7 -6 2 -9 -5 -10 -10 -2 -18 7
-7 5 -15 -7 -24 -9 -8 -12 -12 -5 -9 8 5 8 0 0 -18 -7 -13 -16 -22 -21 -19 -5
4 -7 -3 -4 -14 6 -22 -9 -56 -21 -49 -5 3 -6 -6 -3 -19 3 -16 0 -25 -9 -25
-10 0 -10 -3 -1 -12 15 -15 15 -28 1 -28 -5 0 -7 4 -4 10 4 6 -1 7 -11 3 -11
-4 -13 -8 -6 -11 7 -2 9 -9 6 -14 -4 -6 -2 -8 4 -5 6 5 8 0 5 -13 -3 -11 -9
-18 -13 -15 -5 3 -7 -3 -5 -12 1 -10 9 -17 16 -15 8 1 6 -5 -6 -15 -20 -18
-27 -76 -11 -101 4 -6 4 -12 -1 -12 -4 0 -8 -16 -9 -35 0 -19 4 -31 9 -28 5 3
5 -3 -1 -13 -8 -14 -6 -21 6 -31 12 -9 13 -12 3 -11 -7 2 -16 -3 -19 -11 -3
-10 0 -11 9 -5 12 7 12 5 0 -9 -8 -10 -9 -17 -3 -17 7 0 8 -10 2 -30 -6 -19
-5 -28 1 -24 6 3 7 -5 4 -23 -5 -21 -4 -24 4 -13 9 13 11 13 11 -2 0 -9 -6
-19 -12 -21 -8 -3 -5 -6 5 -6 10 -1 15 -5 12 -11 -3 -5 -1 -10 4 -10 6 0 11
-5 11 -11 0 -5 -5 -7 -11 -3 -8 5 -8 1 0 -14 6 -11 15 -22 21 -24 5 -1 11 -15
12 -30 1 -15 6 -24 10 -22 7 5 13 -19 9 -40 -1 -5 4 -4 12 2 17 14 38 -3 30
-24 -3 -8 1 -14 10 -14 9 0 19 -9 22 -20 4 -11 15 -20 26 -20 11 0 17 -4 14
-10 -3 -5 1 -10 10 -10 10 0 13 -5 9 -12 -5 -7 -2 -9 9 -5 11 4 14 2 10 -9 -3
-9 1 -14 12 -14 10 0 13 -4 9 -12 -5 -9 -2 -9 9 1 15 12 17 11 17 -3 0 -10 5
-14 10 -11 6 3 10 1 10 -5 0 -6 5 -8 10 -5 6 3 10 2 10 -3 0 -5 6 -9 13 -10
32 -3 48 -10 60 -27 9 -11 19 -15 27 -10 9 6 11 4 5 -5 -6 -10 -4 -12 10 -6
15 5 16 4 5 -9 -11 -13 -10 -14 2 -10 8 3 21 -1 28 -9 7 -9 16 -14 20 -11 4 3
7 -3 6 -13 0 -9 5 -16 12 -14 8 1 11 -2 8 -7 -3 -5 1 -11 9 -15 8 -3 15 -11
15 -17 0 -17 42 -50 57 -45 7 3 12 2 12 -2 -2 -16 14 -51 22 -47 4 3 13 -3 18
-13 6 -11 24 -22 41 -26 17 -3 29 -10 26 -15 -3 -5 1 -12 10 -15 8 -3 13 -10
10 -15 -3 -5 4 -7 16 -4 19 4 20 3 8 -6 -13 -9 -12 -11 3 -11 12 0 16 -4 11
-12 -5 -9 -2 -9 9 1 15 12 17 11 17 -3 0 -10 5 -14 10 -11 6 3 10 1 10 -4 0
-6 10 -11 23 -11 18 0 19 -2 7 -10 -12 -8 -11 -10 7 -10 25 0 39 -16 21 -24
-7 -3 -3 -3 10 0 12 3 22 1 22 -5 0 -5 9 -8 20 -6 13 2 18 0 14 -7 -4 -6 1 -8
15 -3 16 5 20 3 15 -10 -4 -9 -3 -15 2 -14 26 4 44 -3 44 -18 0 -15 2 -16 10
-3 8 13 14 8 12 -11 -1 -3 5 -6 13 -6 8 0 13 3 12 6 -1 3 3 6 8 6 6 0 9 -5 7
-11 -1 -7 5 -11 15 -9 10 1 26 -4 35 -13 10 -8 38 -15 67 -15 27 -1 47 -5 45
-9 -3 -4 4 -8 15 -8 12 0 21 -6 22 -12 0 -7 4 -4 9 7 8 18 9 18 9 2 1 -10 6
-15 11 -12 6 3 10 2 10 -2 0 -5 12 -8 28 -7 15 0 30 -4 34 -10 5 -8 8 -7 8 2
0 6 5 12 11 12 5 0 8 -4 5 -8 -2 -4 6 -8 19 -8 13 0 21 4 19 8 -3 4 0 8 5 8 6
0 11 -4 11 -10 0 -5 5 -10 11 -10 5 0 7 6 3 13 -6 9 -4 9 7 0 16 -15 33 -17
24 -3 -3 6 -2 10 4 10 5 0 12 -6 14 -12 4 -10 8 -9 16 2 7 10 11 11 11 3 0 -7
5 -13 11 -13 5 0 7 5 4 10 -3 6 -2 10 4 10 5 0 12 -6 14 -12 4 -10 6 -10 6 0
1 6 6 12 12 12 5 0 8 -4 5 -8 -3 -5 8 -8 24 -8 16 0 27 2 26 5 -2 3 2 12 10
19 8 7 14 8 14 2 0 -5 7 -10 16 -10 8 0 12 4 9 10 -9 14 8 12 24 -2 11 -11 13
-10 7 0 -9 16 6 16 23 0 10 -11 11 -9 5 6 -6 16 -4 18 10 13 9 -4 15 -3 12 2
-9 14 20 21 33 8 8 -8 11 -8 11 2 0 7 5 9 10 6 6 -3 10 -1 10 5 0 6 5 8 10 5
6 -3 10 -2 10 3 0 5 11 12 25 14 13 3 22 2 20 -2 -2 -4 3 -7 11 -7 8 0 13 6
10 13 -3 7 2 15 10 18 8 3 12 1 9 -4 -3 -6 1 -7 9 -4 9 3 16 10 16 15 0 5 6 9
14 9 7 0 19 7 26 15 7 9 15 13 18 10 3 -3 11 0 19 7 11 9 12 7 6 -7 -6 -17 -5
-17 14 1 11 10 18 23 15 28 -3 5 1 6 8 1 8 -5 20 1 32 16 17 21 19 21 14 4 -5
-15 -1 -13 14 7 14 18 27 25 37 21 11 -4 14 -2 9 5 -4 7 -2 12 3 12 6 0 11 8
12 18 0 14 2 14 9 -3 8 -18 9 -18 9 -2 1 11 5 15 13 11 7 -5 9 -2 5 9 -4 11
-1 15 14 12 17 -3 24 5 20 27 0 4 5 5 12 2 8 -3 23 3 33 13 11 10 13 14 4 9
-8 -5 -3 2 12 17 15 15 32 27 38 27 5 0 10 4 10 9 0 5 9 13 20 16 11 4 18 11
15 16 -4 5 1 9 9 9 9 0 16 7 16 16 0 8 5 12 10 9 6 -3 10 4 10 15 0 16 4 20
16 16 12 -4 15 -2 10 9 -4 10 1 15 15 15 11 0 17 4 14 10 -3 5 -1 10 5 10 7 0
10 7 6 18 -5 14 -4 14 9 -2 15 -19 15 -19 15 1 0 11 7 24 16 27 15 6 15 4 3
-11 -12 -14 -9 -14 19 2 28 17 30 21 15 27 -12 4 -6 7 20 7 20 1 37 4 37 9 0
4 9 13 21 20 13 9 18 9 14 2 -5 -8 0 -7 13 1 12 7 18 17 15 23 -3 5 -1 6 6 2
12 -8 53 29 64 56 3 8 6 5 7 -7 1 -18 3 -17 12 5 6 14 10 28 10 33 -2 6 30 12
51 8 4 -1 3 8 -4 20 -8 15 -8 19 0 15 10 -6 15 6 12 27 0 4 2 6 6 6 5 -1 15
-1 23 0 13 1 13 2 0 11 -10 6 -11 10 -2 10 6 0 12 8 12 18 0 10 9 26 21 35 17
15 19 21 7 34 -10 13 -10 15 0 9 9 -6 11 -1 8 18 -3 19 -1 23 11 19 12 -5 14
-3 7 8 -12 20 -14 40 -3 33 5 -3 6 -10 3 -16 -4 -7 -2 -8 4 -4 8 4 8 15 2 31
-7 17 -6 25 1 25 7 0 6 6 -2 17 -8 9 -9 14 -4 11 11 -7 13 37 2 48 -3 3 -2 16
2 28 11 28 11 30 1 66 -6 21 -5 30 3 31 7 0 3 4 -8 9 -19 8 -19 9 0 9 15 1 16
4 7 13 -14 14 -16 32 -2 23 6 -3 7 1 4 9 -3 9 -11 13 -18 9 -6 -4 -5 1 3 10
11 14 11 17 0 18 -8 0 -5 4 6 9 18 8 18 9 2 9 -10 1 -17 7 -16 14 4 36 -2 68
-13 61 -7 -4 -8 -3 -4 5 4 6 0 23 -9 38 -9 14 -12 22 -6 19 6 -4 11 -2 11 3 0
6 -4 11 -10 11 -5 0 -10 13 -10 29 0 17 -6 31 -16 35 -8 3 -12 10 -9 16 3 5 0
10 -7 10 -11 0 -10 2 0 9 11 7 10 9 -3 15 -9 3 -13 10 -10 16 3 6 -1 7 -10 4
-11 -5 -14 -2 -8 12 5 13 3 16 -9 12 -11 -5 -15 0 -14 15 1 15 7 21 19 21 12
-1 15 2 8 10 -6 8 -2 11 14 11 13 0 21 -3 19 -6 -2 -4 3 -10 12 -13 11 -4 15
-2 11 7 -3 9 7 12 40 10 26 -2 42 1 38 7 -3 6 1 7 9 4 9 -3 13 -11 9 -18 -4
-7 -1 -7 9 1 8 7 19 9 23 5 5 -4 5 2 2 13 -7 19 -6 19 7 2 10 -14 15 -15 19
-5 4 10 6 10 6 -1 1 -11 4 -11 16 -1 12 10 15 10 15 -1 0 -12 2 -12 9 0 7 10
13 11 30 2 19 -10 25 -8 23 10 0 3 8 11 20 18 11 7 17 8 13 2 -8 -13 5 -14 25
-1 9 5 19 5 27 -2 9 -7 13 -7 13 0 0 12 26 10 37 -3 4 -4 2 -5 -6 0 -10 5 -12
4 -7 -4 4 -6 12 -9 17 -5 5 3 7 9 5 12 -2 4 7 12 20 19 13 6 22 7 18 2 -8 -13
10 -11 25 3 11 11 12 10 6 -2 -6 -12 -5 -13 6 -2 7 6 23 12 35 12 13 0 26 5
29 10 3 6 12 10 18 10 7 0 6 -4 -3 -10 -9 -6 -10 -10 -3 -10 6 0 18 6 25 13 7
8 19 12 26 9 6 -2 12 2 12 8 0 9 5 9 17 -1 11 -10 14 -10 9 -1 -4 6 -2 12 3
12 6 0 11 7 11 16 0 8 5 12 10 9 6 -4 8 -11 5 -16 -4 -5 -4 -9 0 -9 3 0 10 12
15 26 6 14 14 23 19 19 5 -3 13 0 17 7 4 7 4 10 -1 6 -11 -11 -35 18 -37 46
-1 13 -6 22 -11 19 -5 -3 -6 -12 -3 -20 3 -8 1 -11 -5 -8 -5 4 -7 16 -3 27 5
16 3 19 -7 12 -11 -6 -11 -4 0 10 12 15 12 17 0 14 -9 -2 -14 5 -13 19 0 18
-2 20 -13 12 -10 -9 -13 -5 -14 22 0 28 -2 31 -9 14 -7 -16 -9 -12 -10 20 -2
35 -3 37 -10 15 -7 -22 -8 -22 -10 -5 -1 11 -2 23 -1 28 0 4 -6 7 -14 7 -8 0
-14 3 -14 8 3 20 -2 32 -12 27 -6 -4 -10 -1 -8 6 1 8 1 21 0 29 -1 13 -2 13
-11 0 -8 -13 -10 -13 -10 1 0 23 -26 70 -33 62 -4 -3 -7 0 -7 7 0 7 -8 19 -17
27 -11 8 -12 11 -3 7 13 -7 13 -5 1 9 -7 9 -17 14 -22 12 -4 -3 -13 5 -20 17
-12 22 -11 22 7 8 18 -14 18 -14 5 3 -8 10 -20 16 -28 13 -8 -3 -11 -1 -8 4 4
6 -4 19 -17 30 -13 11 -18 19 -11 20 6 0 14 -6 16 -12 4 -10 6 -10 6 0 1 7 -6
15 -14 17 -49 16 -48 15 -34 31 10 12 10 15 -2 12 -8 -2 -13 2 -12 9 2 7 -6
10 -17 8 -14 -3 -17 1 -13 12 5 12 3 14 -8 8 -12 -8 -12 -6 -1 8 12 14 11 16
-7 12 -11 -2 -20 -1 -20 3 1 4 1 16 0 27 -1 17 -3 18 -11 5 -8 -13 -10 -12
-10 3 0 11 -9 21 -20 24 -11 3 -17 9 -14 14 3 5 0 9 -6 9 -6 0 -8 5 -5 10 3 6
-1 10 -10 10 -10 0 -13 5 -9 13 6 9 4 9 -8 -1 -14 -12 -16 -10 -11 10 4 18 3
20 -6 8 -10 -13 -11 -13 -12 0 -1 8 -1 19 0 24 1 5 -6 3 -15 -5 -10 -8 -15 -9
-11 -3 3 6 -1 20 -9 30 -9 10 -12 12 -8 4 7 -12 5 -13 -8 -3 -8 7 -18 10 -22
6 -4 -4 -4 0 0 10 5 13 1 17 -17 18 -23 0 -23 1 -4 9 18 8 18 9 2 9 -10 1 -16
5 -12 10 3 5 1 12 -4 15 -5 4 -13 1 -17 -5 -5 -8 -3 -9 6 -4 9 6 11 4 6 -4 -6
-9 -13 -8 -26 6 -9 10 -16 21 -14 24 2 4 -6 6 -19 5 -14 -1 -26 7 -32 22 -5
12 -18 22 -27 22 -10 0 -18 5 -18 10 0 6 -7 10 -16 10 -8 0 -12 5 -8 11 4 7
-1 7 -16 -1 -15 -8 -20 -8 -16 -1 6 10 -6 15 -26 12 -5 0 -8 13 -8 29 0 32 9
37 27 19 9 -9 11 -5 9 14 -2 14 0 26 3 25 25 -3 51 4 46 11 -3 5 -1 12 5 16 5
3 10 0 10 -7 1 -8 8 -4 19 9 13 16 21 19 29 11 9 -9 10 -6 7 10 -3 15 0 19 11
15 9 -3 14 0 12 8 -2 8 3 13 11 11 8 -2 11 3 8 12 -4 10 -1 13 9 9 9 -3 14 1
14 12 0 9 5 13 10 10 6 -3 10 -1 10 5 0 6 5 8 10 5 6 -3 10 3 10 15 0 12 5 18
10 15 6 -3 10 1 10 10 0 11 5 15 16 11 9 -3 12 -2 9 5 -4 6 0 9 11 7 13 -2 18
3 19 22 0 17 5 25 17 24 10 -1 15 2 12 7 -3 5 1 9 8 9 9 0 9 3 -2 10 -13 8
-12 10 3 10 10 0 16 4 13 8 -3 5 4 14 14 22 10 8 17 17 14 22 -3 4 2 11 11 14
13 6 14 8 3 15 -9 6 -6 9 12 10 14 0 20 3 13 5 -7 3 1 17 20 36 31 30 31 30 7
24 -25 -6 -25 -6 -2 5 20 11 27 28 23 53 -1 5 5 6 13 3 10 -4 14 0 11 14 -2
10 1 19 6 19 6 0 8 4 4 9 -3 5 1 15 8 23 8 7 12 27 10 43 -3 23 -1 26 7 15 8
-12 10 -10 10 10 0 20 2 22 10 10 6 -9 10 -10 10 -3 0 6 -4 15 -10 18 -5 3
-10 14 -10 23 0 15 2 15 10 2 8 -12 10 -10 10 8 0 14 -4 21 -11 16 -6 -3 -4 5
5 18 9 14 13 28 9 31 -3 4 -1 7 5 7 7 0 12 5 12 11 0 5 -4 7 -10 4 -5 -3 -10
-1 -10 4 0 6 4 11 10 11 5 0 9 11 8 24 -1 14 -6 22 -10 20 -12 -8 -9 11 4 24
21 21 3 13 -20 -9z m-2019 -206 c-3 -7 -6 -13 -8 -13 -2 0 -5 6 -8 13 -3 8 1
14 8 14 7 0 11 -6 8 -14z m-588 -43 c3 -5 1 -10 -4 -10 -6 0 -11 5 -11 10 0 6
2 10 4 10 3 0 8 -4 11 -10z m2350 -390 c3 -6 -1 -7 -9 -4 -18 7 -21 14 -7 14
6 0 13 -4 16 -10z m-3015 -36 c0 -8 -19 -13 -24 -6 -3 5 1 9 9 9 8 0 15 -2 15
-3z m34 -1422 c2 -4 -4 -8 -14 -8 -10 0 -16 4 -14 8 3 4 9 8 14 8 5 0 11 -4
14 -8z m1576 -1722 c0 -5 -5 -10 -11 -10 -5 0 -7 5 -4 10 3 6 8 10 11 10 2 0
4 -4 4 -10z"/>
<path d="M2015 3880 c-3 -5 -1 -10 4 -10 6 0 11 5 11 10 0 6 -2 10 -4 10 -3 0
-8 -4 -11 -10z"/>
<path d="M2426 3868 c3 -5 10 -6 15 -3 13 9 11 12 -6 12 -8 0 -12 -4 -9 -9z"/>
<path d="M2576 3848 c3 -5 10 -6 15 -3 13 9 11 12 -6 12 -8 0 -12 -4 -9 -9z"/>
<path d="M3195 3840 c-3 -5 -1 -10 4 -10 6 0 11 5 11 10 0 6 -2 10 -4 10 -3 0
-8 -4 -11 -10z"/>
<path d="M3530 3061 c0 -5 5 -13 10 -16 6 -3 10 -2 10 4 0 5 -4 13 -10 16 -5
3 -10 2 -10 -4z"/>
<path d="M770 1010 c0 -5 5 -10 11 -10 5 0 7 5 4 10 -3 6 -8 10 -11 10 -2 0
-4 -4 -4 -10z"/>
<path d="M1131 743 c7 -12 15 -20 18 -17 3 2 -3 12 -13 22 -17 16 -18 16 -5
-5z"/>
<path d="M2695 360 c-3 -5 -1 -10 4 -10 6 0 11 5 11 10 0 6 -2 10 -4 10 -3 0
-8 -4 -11 -10z"/>
<path d="M1870 266 c0 -2 7 -7 16 -10 8 -3 12 -2 9 4 -6 10 -25 14 -25 6z"/>
</g>
</svg>
